<?xml version="1.0" encoding="UTF-8" standalone="no"?> <svg xmlns="http://www.w3.org/2000/svg" xmlns:xlink="http://www.w3.org/1999/xlink" viewBox="0 0 64 64"><defs><style>.cls-1{fill:url(#linear-gradient);}.cls-2{fill:url(#linear-gradient-2);}.cls-3{fill:url(#linear-gradient-3);}.cls-4{fill:url(#linear-gradient-4);}.cls-5{fill:url(#linear-gradient-5);}.cls-6{fill:url(#linear-gradient-6);}.cls-7{fill:url(#linear-gradient-7);}.cls-8{fill:url(#linear-gradient-8);}.cls-9{fill:url(#linear-gradient-9);}.cls-10{fill:url(#linear-gradient-10);}</style><linearGradient id="linear-gradient" x1="11" y1="32" x2="53" y2="32" gradientUnits="userSpaceOnUse"><stop offset="0" stop-color="#17a6d7"/><stop offset="1" stop-color="#9d31fe"/></linearGradient><linearGradient id="linear-gradient-2" x1="16.21" y1="14.87" x2="47.79" y2="14.87" xlink:href="#linear-gradient"/><linearGradient id="linear-gradient-3" x1="38.18" y1="45.87" x2="47.79" y2="45.87" xlink:href="#linear-gradient"/><linearGradient id="linear-gradient-4" x1="16.21" y1="29.37" x2="25.82" y2="29.37" xlink:href="#linear-gradient"/><linearGradient id="linear-gradient-5" x1="27.2" y1="29.37" x2="36.8" y2="29.37" xlink:href="#linear-gradient"/><linearGradient id="linear-gradient-6" x1="16.21" y1="40.4" x2="25.82" y2="40.4" xlink:href="#linear-gradient"/><linearGradient id="linear-gradient-7" x1="27.2" y1="40.4" x2="36.8" y2="40.4" xlink:href="#linear-gradient"/><linearGradient id="linear-gradient-8" x1="16.21" y1="51.33" x2="25.82" y2="51.33" xlink:href="#linear-gradient"/><linearGradient id="linear-gradient-9" x1="27.2" y1="51.33" x2="36.8" y2="51.33" xlink:href="#linear-gradient"/><linearGradient id="linear-gradient-10" x1="38.18" y1="29.37" x2="47.79" y2="29.37" xlink:href="#linear-gradient"/></defs><g id="Layer_17" data-name="Layer 17"><path class="cls-1" d="M46.2,3H17.8A6.81,6.81,0,0,0,11,9.8V54.2A6.81,6.81,0,0,0,17.8,61H46.2A6.81,6.81,0,0,0,53,54.2V9.8A6.81,6.81,0,0,0,46.2,3ZM51,54.2A4.8,4.8,0,0,1,46.2,59H17.8A4.8,4.8,0,0,1,13,54.2V9.8A4.8,4.8,0,0,1,17.8,5H46.2A4.8,4.8,0,0,1,51,9.8Z"/><path class="cls-2" d="M44.42,7.87H19.58a3.37,3.37,0,0,0-3.37,3.37v7.25a3.38,3.38,0,0,0,3.37,3.38H44.42a3.38,3.38,0,0,0,3.37-3.38V11.24A3.37,3.37,0,0,0,44.42,7.87Zm1.37,10.62a1.38,1.38,0,0,1-1.37,1.38H19.58a1.38,1.38,0,0,1-1.37-1.38V11.24a1.37,1.37,0,0,1,1.37-1.37H44.42a1.37,1.37,0,0,1,1.37,1.37Z"/><path class="cls-3" d="M46.79,35.6H39.18a1,1,0,0,0-1,1V55.13a1,1,0,0,0,1,1h7.61a1,1,0,0,0,1-1V36.6A1,1,0,0,0,46.79,35.6Zm-1,18.53H40.18V37.6h5.61Z"/><path class="cls-4" d="M24.82,24.57H17.21a1,1,0,0,0-1,1v7.61a1,1,0,0,0,1,1h7.61a1,1,0,0,0,1-1V25.57A1,1,0,0,0,24.82,24.57Zm-1,7.61H18.21V26.57h5.61Z"/><path class="cls-5" d="M35.8,24.57H28.2a1,1,0,0,0-1,1v7.61a1,1,0,0,0,1,1h7.6a1,1,0,0,0,1-1V25.57A1,1,0,0,0,35.8,24.57Zm-1,7.61H29.2V26.57h5.6Z"/><path class="cls-6" d="M24.82,35.6H17.21a1,1,0,0,0-1,1v7.6a1,1,0,0,0,1,1h7.61a1,1,0,0,0,1-1V36.6A1,1,0,0,0,24.82,35.6Zm-1,7.6H18.21V37.6h5.61Z"/><path class="cls-7" d="M35.8,35.6H28.2a1,1,0,0,0-1,1v7.6a1,1,0,0,0,1,1h7.6a1,1,0,0,0,1-1V36.6A1,1,0,0,0,35.8,35.6Zm-1,7.6H29.2V37.6h5.6Z"/><path class="cls-8" d="M24.82,46.53H17.21a1,1,0,0,0-1,1v7.6a1,1,0,0,0,1,1h7.61a1,1,0,0,0,1-1v-7.6A1,1,0,0,0,24.82,46.53Zm-1,7.6H18.21v-5.6h5.61Z"/><path class="cls-9" d="M35.8,46.53H28.2a1,1,0,0,0-1,1v7.6a1,1,0,0,0,1,1h7.6a1,1,0,0,0,1-1v-7.6A1,1,0,0,0,35.8,46.53Zm-1,7.6H29.2v-5.6h5.6Z"/><path class="cls-10" d="M46.79,24.57H39.18a1,1,0,0,0-1,1v7.61a1,1,0,0,0,1,1h7.61a1,1,0,0,0,1-1V25.57A1,1,0,0,0,46.79,24.57Zm-1,7.61H40.18V26.57h5.61Z"/></g></svg>